<?xml version="1.0" encoding="utf-8"?>
<!-- Generator: Adobe Illustrator 16.0.4, SVG Export Plug-In . SVG Version: 6.00 Build 0)  -->
<!DOCTYPE svg PUBLIC "-//W3C//DTD SVG 1.1//EN" "http://www.w3.org/Graphics/SVG/1.1/DTD/svg11.dtd">
<svg version="1.1" id="Ebene_1" xmlns="http://www.w3.org/2000/svg" xmlns:xlink="http://www.w3.org/1999/xlink" x="0px" y="0px"
	 width="612px" height="612px" viewBox="0 0 612 612" enable-background="new 0 0 612 612" xml:space="preserve">
<path fill="#06647D" d="M484.137,293.479c0,41.735-18.592,79.677-48.945,109.272c-5.691,5.312-4.553,1.896,33.769,89.162
	c2.655,6.45,0.379,4.554-3.035,2.656c-88.784-54.257-87.646-53.877-89.543-53.118c-28.077,12.142-59.948,19.35-94.095,19.35
	c-111.169,0-201.471-74.745-201.471-166.943s90.301-166.943,201.471-166.943S484.137,201.281,484.137,293.479z"/>
<path fill="#51C1B5" stroke="#FFFFFF" stroke-width="2.5" stroke-miterlimit="10" d="M445.815,293.479
	c0,74.745-73.228,135.072-163.149,135.072c-26.18,0-50.842-4.933-72.848-14.038c-7.968-3.415-3.794-5.691-89.922,52.359
	c-7.209,4.933-13.28-1.139-9.106-8.727c45.53-82.334,45.53-78.919,40.598-84.99c-1.897-1.896-3.415-4.173-5.312-6.449
	c-16.694-21.248-26.559-46.668-26.559-73.987c0-74.745,73.228-135.072,163.149-135.072S445.815,218.734,445.815,293.479z"/>
<g enable-background="new    ">
	<path d="M266.24,349.977c-5.768,2.883-17.303,5.768-32.082,5.768c-34.245,0-60.019-21.629-60.019-61.461
		c0-38.03,25.774-63.804,63.443-63.804c15.14,0,24.693,3.245,28.838,5.407l-3.785,12.797c-5.948-2.884-14.419-5.046-24.512-5.046
		c-28.478,0-47.402,18.204-47.402,50.105c0,29.739,17.123,48.844,46.681,48.844c9.553,0,19.286-1.982,25.594-5.046L266.24,349.977z"
		/>
	<path d="M301.562,232.462v50.827h58.758v-50.827h15.86v121.479h-15.86v-56.955h-58.758v56.955h-15.681V232.462H301.562z"/>
</g>
</svg>
