<?xml version="1.0" standalone="no"?>
<!DOCTYPE svg PUBLIC "-//W3C//DTD SVG 20010904//EN"
 "http://www.w3.org/TR/2001/REC-SVG-20010904/DTD/svg10.dtd">
<svg version="1.0" xmlns="http://www.w3.org/2000/svg"
 width="700.000000pt" height="700.000000pt" viewBox="0 0 700.000000 700.000000"
 preserveAspectRatio="xMidYMid meet">
<metadata>
Created by potrace 1.11, written by Peter Selinger 2001-2013
</metadata>
<g transform="translate(0.000000,700.000000) scale(0.100000,-0.100000)"
fill="#000000" stroke="none">
<path d="M3088 5545 c-2 -1 -41 -5 -88 -9 -47 -3 -96 -8 -110 -10 -14 -2 -47
-7 -75 -11 -132 -16 -406 -86 -535 -137 -481 -187 -867 -491 -1100 -868 -290
-467 -334 -1008 -122 -1510 89 -211 220 -399 405 -583 l99 -98 -60 -107 c-32
-59 -71 -127 -84 -152 -116 -205 -170 -309 -175 -332 -14 -71 33 -116 98 -94
31 11 256 157 481 313 42 29 82 53 87 53 6 0 11 4 11 8 0 5 12 14 26 21 23 10
35 7 103 -28 248 -127 577 -222 891 -255 120 -13 518 -14 585 -2 17 3 66 10
110 16 173 25 396 84 574 152 103 40 104 40 140 23 20 -9 170 -99 334 -198
163 -100 310 -189 325 -198 15 -9 98 -59 185 -113 86 -53 163 -97 170 -99 7
-1 11 6 9 18 -3 16 -273 631 -349 794 -39 84 -73 179 -73 204 0 14 31 54 81
107 142 150 261 323 346 500 38 79 90 218 99 263 2 11 8 34 14 51 5 17 12 48
16 70 3 21 8 48 10 60 17 81 24 314 12 421 -49 428 -265 821 -628 1140 -44 39
-57 49 -150 118 -311 232 -734 394 -1177 452 -103 13 -475 29 -485 20z"/>
</g>
</svg>
